<svg xmlns="http://www.w3.org/2000/svg" viewBox="0 0 512 512" width="512" height="512">
  <defs>
    <linearGradient id="bg" x1="0%" y1="0%" x2="100%" y2="100%">
      <stop offset="0%" style="stop-color:#6C5CE7"/>
      <stop offset="100%" style="stop-color:#4834D4"/>
    </linearGradient>
  </defs>
  <!-- Background -->
  <rect width="512" height="512" rx="112" fill="url(#bg)"/>
  <!-- Center node -->
  <circle cx="256" cy="256" r="48" fill="#FFFFFF"/>
  <!-- Outer nodes -->
  <circle cx="256" cy="120" r="28" fill="rgba(255,255,255,0.85)"/>
  <circle cx="374" cy="188" r="28" fill="rgba(255,255,255,0.85)"/>
  <circle cx="374" cy="324" r="28" fill="rgba(255,255,255,0.85)"/>
  <circle cx="256" cy="392" r="28" fill="rgba(255,255,255,0.85)"/>
  <circle cx="138" cy="324" r="28" fill="rgba(255,255,255,0.85)"/>
  <circle cx="138" cy="188" r="28" fill="rgba(255,255,255,0.85)"/>
  <!-- Connection lines -->
  <line x1="256" y1="208" x2="256" y2="148" stroke="rgba(255,255,255,0.5)" stroke-width="6" stroke-linecap="round"/>
  <line x1="296" y1="228" x2="348" y2="200" stroke="rgba(255,255,255,0.5)" stroke-width="6" stroke-linecap="round"/>
  <line x1="296" y1="284" x2="348" y2="312" stroke="rgba(255,255,255,0.5)" stroke-width="6" stroke-linecap="round"/>
  <line x1="256" y1="304" x2="256" y2="364" stroke="rgba(255,255,255,0.5)" stroke-width="6" stroke-linecap="round"/>
  <line x1="216" y1="284" x2="164" y2="312" stroke="rgba(255,255,255,0.5)" stroke-width="6" stroke-linecap="round"/>
  <line x1="216" y1="228" x2="164" y2="200" stroke="rgba(255,255,255,0.5)" stroke-width="6" stroke-linecap="round"/>
  <!-- Lightning bolt accent in center -->
  <path d="M264 232 L248 258 L268 258 L252 280" fill="none" stroke="#6C5CE7" stroke-width="7" stroke-linecap="round" stroke-linejoin="round"/>
</svg>
